<svg width="128" height="128" viewBox="0 0 128 128" fill="none" xmlns="http://www.w3.org/2000/svg">
<rect width="128" height="128" rx="20" fill="#FACC15"/>
<path d="M55.2471 103.525L36.3408 41.9189H35.8574C35.929 43.387 36.0365 45.6071 36.1797 48.5791C36.3587 51.5153 36.5199 54.6484 36.6631 57.9785C36.8063 61.3086 36.8779 64.3164 36.8779 67.002V103.525H22V25H44.666L63.25 85.0488H63.5723L83.2842 25H105.95V103.525H90.4277V66.3574C90.4277 63.8867 90.4635 61.04 90.5352 57.8174C90.6426 54.5947 90.7679 51.5332 90.9111 48.6328C91.0544 45.6966 91.1618 43.4945 91.2334 42.0264H90.75L70.501 103.525H55.2471Z" fill="black"/>
</svg>
